<mxfile host="Electron" modified="2023-07-27T07:18:04.330Z" agent="Mozilla/5.0 (Windows NT 10.0; Win64; x64) AppleWebKit/537.36 (KHTML, like Gecko) draw.io/21.6.5 Chrome/114.0.5735.243 Electron/25.3.1 Safari/537.36" etag="sp6Q2VuIrtHfwCeDY61f" version="21.6.5" type="device">
  <diagram name="Page-1" id="4-x6CXOC7gHMcH-3mxfd">
    <mxGraphModel dx="1098" dy="820" grid="1" gridSize="10" guides="1" tooltips="1" connect="1" arrows="1" fold="1" page="1" pageScale="1" pageWidth="850" pageHeight="1100" math="0" shadow="0">
      <root>
        <mxCell id="0" />
        <mxCell id="1" parent="0" />
        <mxCell id="ifjbXHap7p1caOG2OOX2-3" style="edgeStyle=orthogonalEdgeStyle;rounded=0;orthogonalLoop=1;jettySize=auto;html=1;" edge="1" parent="1" source="ifjbXHap7p1caOG2OOX2-2" target="ifjbXHap7p1caOG2OOX2-4">
          <mxGeometry relative="1" as="geometry">
            <mxPoint x="390" y="210" as="targetPoint" />
          </mxGeometry>
        </mxCell>
        <mxCell id="ifjbXHap7p1caOG2OOX2-2" value="Start" style="rounded=1;whiteSpace=wrap;html=1;" vertex="1" parent="1">
          <mxGeometry x="330" y="80" width="120" height="60" as="geometry" />
        </mxCell>
        <mxCell id="ifjbXHap7p1caOG2OOX2-5" style="edgeStyle=orthogonalEdgeStyle;rounded=0;orthogonalLoop=1;jettySize=auto;html=1;" edge="1" parent="1" source="ifjbXHap7p1caOG2OOX2-4" target="ifjbXHap7p1caOG2OOX2-6">
          <mxGeometry relative="1" as="geometry">
            <mxPoint x="390" y="330" as="targetPoint" />
          </mxGeometry>
        </mxCell>
        <mxCell id="ifjbXHap7p1caOG2OOX2-4" value="Input N" style="shape=parallelogram;perimeter=parallelogramPerimeter;whiteSpace=wrap;html=1;fixedSize=1;" vertex="1" parent="1">
          <mxGeometry x="330" y="180" width="120" height="60" as="geometry" />
        </mxCell>
        <mxCell id="ifjbXHap7p1caOG2OOX2-7" style="edgeStyle=orthogonalEdgeStyle;rounded=0;orthogonalLoop=1;jettySize=auto;html=1;" edge="1" parent="1" source="ifjbXHap7p1caOG2OOX2-6" target="ifjbXHap7p1caOG2OOX2-8">
          <mxGeometry relative="1" as="geometry">
            <mxPoint x="390" y="450" as="targetPoint" />
          </mxGeometry>
        </mxCell>
        <mxCell id="ifjbXHap7p1caOG2OOX2-6" value="i=0, sum=0" style="rounded=0;whiteSpace=wrap;html=1;" vertex="1" parent="1">
          <mxGeometry x="330" y="300" width="120" height="60" as="geometry" />
        </mxCell>
        <mxCell id="ifjbXHap7p1caOG2OOX2-14" style="edgeStyle=orthogonalEdgeStyle;rounded=0;orthogonalLoop=1;jettySize=auto;html=1;entryX=0.5;entryY=0;entryDx=0;entryDy=0;" edge="1" parent="1" source="ifjbXHap7p1caOG2OOX2-8" target="ifjbXHap7p1caOG2OOX2-28">
          <mxGeometry relative="1" as="geometry">
            <mxPoint x="550" y="450" as="targetPoint" />
          </mxGeometry>
        </mxCell>
        <mxCell id="ifjbXHap7p1caOG2OOX2-15" value="FALSE" style="edgeLabel;html=1;align=center;verticalAlign=middle;resizable=0;points=[];" vertex="1" connectable="0" parent="ifjbXHap7p1caOG2OOX2-14">
          <mxGeometry x="0.1418" relative="1" as="geometry">
            <mxPoint y="50" as="offset" />
          </mxGeometry>
        </mxCell>
        <mxCell id="ifjbXHap7p1caOG2OOX2-8" value="i&amp;gt;=N" style="rhombus;whiteSpace=wrap;html=1;" vertex="1" parent="1">
          <mxGeometry x="350" y="410" width="80" height="80" as="geometry" />
        </mxCell>
        <mxCell id="ifjbXHap7p1caOG2OOX2-21" style="edgeStyle=orthogonalEdgeStyle;rounded=0;orthogonalLoop=1;jettySize=auto;html=1;exitX=0;exitY=0.5;exitDx=0;exitDy=0;" edge="1" parent="1" target="ifjbXHap7p1caOG2OOX2-31" source="ifjbXHap7p1caOG2OOX2-8">
          <mxGeometry relative="1" as="geometry">
            <mxPoint x="230" y="450" as="targetPoint" />
            <mxPoint x="340" y="450" as="sourcePoint" />
            <Array as="points">
              <mxPoint x="290" y="450" />
              <mxPoint x="290" y="451" />
            </Array>
          </mxGeometry>
        </mxCell>
        <mxCell id="ifjbXHap7p1caOG2OOX2-22" value="TRUE" style="edgeLabel;html=1;align=center;verticalAlign=middle;resizable=0;points=[];" vertex="1" connectable="0" parent="ifjbXHap7p1caOG2OOX2-21">
          <mxGeometry x="-0.2" relative="1" as="geometry">
            <mxPoint as="offset" />
          </mxGeometry>
        </mxCell>
        <mxCell id="ifjbXHap7p1caOG2OOX2-23" style="edgeStyle=orthogonalEdgeStyle;rounded=0;orthogonalLoop=1;jettySize=auto;html=1;" edge="1" parent="1" source="ifjbXHap7p1caOG2OOX2-24" target="ifjbXHap7p1caOG2OOX2-25">
          <mxGeometry relative="1" as="geometry">
            <mxPoint x="230" y="690" as="targetPoint" />
          </mxGeometry>
        </mxCell>
        <mxCell id="ifjbXHap7p1caOG2OOX2-24" value="Put tbc to Output" style="shape=parallelogram;perimeter=parallelogramPerimeter;whiteSpace=wrap;html=1;fixedSize=1;" vertex="1" parent="1">
          <mxGeometry x="100" y="560" width="120" height="60" as="geometry" />
        </mxCell>
        <mxCell id="ifjbXHap7p1caOG2OOX2-25" value="End" style="rounded=1;whiteSpace=wrap;html=1;" vertex="1" parent="1">
          <mxGeometry x="100" y="710" width="120" height="60" as="geometry" />
        </mxCell>
        <mxCell id="ifjbXHap7p1caOG2OOX2-30" style="edgeStyle=orthogonalEdgeStyle;rounded=0;orthogonalLoop=1;jettySize=auto;html=1;entryX=0.5;entryY=1;entryDx=0;entryDy=0;" edge="1" parent="1" source="ifjbXHap7p1caOG2OOX2-28" target="ifjbXHap7p1caOG2OOX2-8">
          <mxGeometry relative="1" as="geometry" />
        </mxCell>
        <mxCell id="ifjbXHap7p1caOG2OOX2-28" value="sum=sum+x[i]&lt;br&gt;i=i+1" style="rounded=0;whiteSpace=wrap;html=1;" vertex="1" parent="1">
          <mxGeometry x="510" y="590" width="120" height="60" as="geometry" />
        </mxCell>
        <mxCell id="ifjbXHap7p1caOG2OOX2-32" style="edgeStyle=orthogonalEdgeStyle;rounded=0;orthogonalLoop=1;jettySize=auto;html=1;entryX=0.5;entryY=0;entryDx=0;entryDy=0;" edge="1" parent="1" source="ifjbXHap7p1caOG2OOX2-31" target="ifjbXHap7p1caOG2OOX2-24">
          <mxGeometry relative="1" as="geometry" />
        </mxCell>
        <mxCell id="ifjbXHap7p1caOG2OOX2-31" value="tbc=sum/N" style="rounded=0;whiteSpace=wrap;html=1;" vertex="1" parent="1">
          <mxGeometry x="100" y="420" width="120" height="60" as="geometry" />
        </mxCell>
      </root>
    </mxGraphModel>
  </diagram>
</mxfile>
